<?xml version="1.0" encoding="UTF-8" standalone="no"?>
<!-- Created with Inkscape (http://www.inkscape.org/) -->

<svg
   xmlns:dc="http://purl.org/dc/elements/1.1/"
   xmlns:cc="http://creativecommons.org/ns#"
   xmlns:rdf="http://www.w3.org/1999/02/22-rdf-syntax-ns#"
   xmlns:svg="http://www.w3.org/2000/svg"
   xmlns="http://www.w3.org/2000/svg"
   xmlns:sodipodi="http://sodipodi.sourceforge.net/DTD/sodipodi-0.dtd"
   xmlns:inkscape="http://www.inkscape.org/namespaces/inkscape"
   width="512"
   height="512"
   viewBox="0 0 512.00001 512.00001"
   id="svg2"
   version="1.1"
   inkscape:version="0.91 r13725"
   sodipodi:docname="combunity.svg">
  <defs
     id="defs4" />
  <sodipodi:namedview
     id="base"
     pagecolor="#ffffff"
     bordercolor="#666666"
     borderopacity="1.0"
     inkscape:pageopacity="0.0"
     inkscape:pageshadow="2"
     inkscape:zoom="0.7"
     inkscape:cx="357.92109"
     inkscape:cy="338.66371"
     inkscape:document-units="px"
     inkscape:current-layer="layer1"
     showgrid="false"
     inkscape:window-width="1301"
     inkscape:window-height="744"
     inkscape:window-x="65"
     inkscape:window-y="24"
     inkscape:window-maximized="1"
     units="px" />
  <metadata
     id="metadata7">
    <rdf:RDF>
      <cc:Work
         rdf:about="">
        <dc:format>image/svg+xml</dc:format>
        <dc:type
           rdf:resource="http://purl.org/dc/dcmitype/StillImage" />
        <dc:title></dc:title>
      </cc:Work>
    </rdf:RDF>
  </metadata>
  <g
     inkscape:label="Layer 1"
     inkscape:groupmode="layer"
     id="layer1"
     transform="translate(0,-540.36216)">
    <g
       id="g4876"
       transform="matrix(0.40063851,0,0,0.3972896,26.361712,857.71129)">
      <g
         id="g4790">
        <path
           id="path4792"
           d="m 391.863,422.878 -0.726,-6.536 c -0.287,-2.585 -2.616,-4.449 -5.201,-4.162 l -0.407,0.045 -7.027,-56.214 c -1.529,-12.228 -9.943,-22.492 -21.634,-26.389 l -39.047,-13.016 c -5.362,-1.788 -11.244,-0.65 -15.379,2.874 L 290.94,315.646 C 284.406,313.468 280,307.354 280,300.467 l 0,-25.802 34.461,-14.359 C 332.349,252.855 344,235.378 344,216 l 0,-8 c 13.255,0 24,-10.745 24,-24 0,-4.003 -0.985,-7.774 -2.719,-11.092 1.744,-3.95 2.719,-8.314 2.719,-12.908 0,-3.24 -0.625,-6.304 -1.52,-9.251 5.871,-5.801 9.52,-13.844 9.52,-22.749 0,-3.24 -0.625,-6.304 -1.52,-9.251 C 380.352,112.948 384,104.905 384,96 384,80.609 373.127,67.774 358.648,64.711 359.441,61.924 360,59.041 360,56 360,38.327 345.673,24 328,24 321.363,24 315.199,26.022 310.087,29.482 305.72,17.005 293.968,8 280,8 272.109,8 264.979,10.965 259.399,15.7 253.818,6.337 243.693,0 232.001,0 220.309,0 210.185,6.337 204.602,15.7 199.022,10.965 191.892,8 184.001,8 170.033,8 158.281,17.005 153.914,29.482 148.801,26.022 142.637,24 136.001,24 c -17.673,0 -32,14.327 -32,32 0,3.041 0.56,5.924 1.352,8.711 C 90.873,67.774 80,80.609 80,96 c 0,8.905 3.649,16.948 9.52,22.749 C 88.625,121.696 88,124.76 88,128 c 0,8.905 3.649,16.948 9.52,22.749 C 96.625,153.696 96,156.76 96,160 c 0,4.594 0.975,8.958 2.719,12.908 C 96.986,176.226 96,179.997 96,184 c 0,13.255 10.745,24 24,24 l 0,8 c 0,19.377 11.651,36.854 29.538,44.308 l 34.462,14.359 0,25.801 c 0,6.887 -4.407,13.001 -10.94,15.179 l -11.502,3.834 c -4.135,-3.524 -10.017,-4.662 -15.379,-2.874 l -39.047,13.016 c -11.691,3.897 -20.105,14.161 -21.634,26.389 l -7.027,56.214 -0.407,-0.045 c -2.585,-0.287 -4.914,1.576 -5.201,4.162 l -0.726,6.536 c -0.287,2.585 1.576,4.914 4.161,5.201 L 88,429.38 88,448 c 0,8.836 7.164,16 16,16 l 40,0 176,0 40,0 c 8.837,0 16,-7.164 16,-16 l 0,-18.621 11.702,-1.3 c 2.585,-0.287 4.449,-2.616 4.161,-5.201 z"
           style="fill:#c38762"
           inkscape:connector-curvature="0" />
        <path
           id="path4794"
           d="M 374.481,118.749 C 380.352,112.948 384,104.905 384,96 384,80.609 373.127,67.774 358.648,64.711 359.441,61.924 360,59.041 360,56 360,38.327 345.673,24 328,24 321.363,24 315.199,26.022 310.087,29.482 305.72,17.005 293.968,8 280,8 272.109,8 264.979,10.965 259.399,15.7 253.818,6.337 243.693,0 232.001,0 220.309,0 210.185,6.337 204.602,15.7 199.022,10.965 191.892,8 184.001,8 170.033,8 158.281,17.005 153.914,29.482 148.801,26.022 142.637,24 136.001,24 c -17.673,0 -32,14.327 -32,32 0,3.041 0.56,5.924 1.352,8.711 C 90.873,67.774 80,80.609 80,96 c 0,8.905 3.649,16.948 9.52,22.749 C 88.625,121.696 88,124.76 88,128 c 0,8.905 3.649,16.948 9.52,22.749 C 96.625,153.696 96,156.76 96,160 c 0,17.673 14.327,32 32,32 0.003,0 0.006,0 0.01,0 l 207.981,0 c 0.003,0 0.006,0 0.01,0 17.673,0 32,-14.327 32,-32 0,-3.24 -0.625,-6.304 -1.52,-9.251 5.871,-5.801 9.52,-13.844 9.52,-22.749 -10e-4,-3.24 -0.625,-6.304 -1.52,-9.251 z"
           style="fill:#623f33"
           inkscape:connector-curvature="0" />
        <g
           id="g4796">
          <path
             id="path4798"
             d="m 320,464.001 0,-40 67,0 -8.499,-67.989 c -1.529,-12.228 -9.943,-22.492 -21.634,-26.389 L 317.82,316.607 c -6.8,-2.267 -14.45,0.154 -18.291,6.206 -14.18,22.344 -39.105,37.187 -67.528,37.187 -28.423,0 -53.349,-14.844 -67.53,-37.188 -3.841,-6.052 -11.491,-8.473 -18.291,-6.206 l -39.047,13.016 c -11.691,3.897 -20.105,14.161 -21.634,26.389 l -7.609,60.872 66.111,7.117 0,40 176,0 0,10e-4 z"
             style="fill:#ffd739"
             inkscape:connector-curvature="0" />
        </g>
        <g
           id="g4800">
          <path
             id="path4802"
             d="m 280,274.667 -96,-21.334 0,47.135 c 0,5.759 -3.186,10.831 -8.017,13.659 C 243.077,325.871 280,274.667 280,274.667 Z"
             style="fill:#a46d4d"
             inkscape:connector-curvature="0" />
        </g>
        <path
           id="path4804"
           d="m 344,160 0,-24 c 0,-22.091 -17.909,-48 -40,-48 l -144,0 c -22.092,0 -40,25.909 -40,48 l 0,24 c -13.255,0 -24,10.746 -24,24 0,13.255 10.745,24 24,24 l 0,8 c 0,19.377 11.651,36.854 29.538,44.308 l 51.691,21.538 C 210.98,285.909 221.438,288 232,288 l 0,0 c 10.562,0 21.019,-2.092 30.769,-6.154 l 51.694,-21.539 C 332.349,252.855 344,235.378 344,216 l 0,-8 c 13.255,0 24,-10.745 24,-24 0,-13.255 -10.745,-24 -24,-24 z"
           style="fill:#d29771"
           inkscape:connector-curvature="0" />
        <g
           id="g4806">
          <path
             id="path4808"
             d="m 176.001,192 0,0 c -4.4,0 -8,-3.6 -8,-8 l 0,-8 c 0,-4.4 3.6,-8 8,-8 l 0,0 c 4.4,0 8,3.6 8,8 l 0,8 c 0,4.4 -3.601,8 -8,8 z"
             style="fill:#623f33"
             inkscape:connector-curvature="0" />
        </g>
        <g
           id="g4810">
          <path
             id="path4812"
             d="m 288,192 0,0 c -4.4,0 -8,-3.6 -8,-8 l 0,-8 c 0,-4.4 3.6,-8 8,-8 l 0,0 c 4.4,0 8,3.6 8,8 l 0,8 c 0,4.4 -3.6,8 -8,8 z"
             style="fill:#623f33"
             inkscape:connector-curvature="0" />
        </g>
        <g
           id="g4814">
          <g
             id="g4816">
            <path
               id="path4818"
               d="m 232.001,248.219 c -14.223,0 -27.527,-3.5 -36.5,-9.605 -3.652,-2.484 -4.601,-7.461 -2.113,-11.113 2.48,-3.648 7.461,-4.598 11.113,-2.113 6.289,4.277 16.57,6.832 27.5,6.832 10.93,0 21.211,-2.555 27.5,-6.832 3.66,-2.492 8.629,-1.539 11.113,2.113 2.488,3.652 1.539,8.629 -2.113,11.113 -8.972,6.105 -22.277,9.605 -36.5,9.605 z"
               style="fill:#a46d4d"
               inkscape:connector-curvature="0" />
          </g>
        </g>
        <g
           id="g4820">
          <path
             id="path4822"
             d="m 144.001,430.04 0,-18.106 c 0,-7.697 -2.774,-15.135 -7.813,-20.953 L 92.169,340.168 c -3.552,4.497 -5.93,9.93 -6.669,15.843 l -8.356,66.847 c 12.723,0.764 46.567,4.729 66.857,7.182 z"
             style="fill:#ffc33d"
             inkscape:connector-curvature="0" />
        </g>
        <g
           id="g4824">
          <path
             id="path4826"
             d="m 144.001,419.507 -65.936,-7.326 c -2.586,-0.287 -4.914,1.576 -5.202,4.161 l -0.726,6.536 c -0.287,2.585 1.576,4.914 4.161,5.201 l 67.703,7.523 0,-16.095 z"
             style="fill:#ffb440"
             inkscape:connector-curvature="0" />
        </g>
        <g
           id="g4828">
          <path
             id="path4830"
             d="m 320,430.04 0,-18.106 c 0,-7.697 2.774,-15.135 7.813,-20.953 l 44.019,-50.813 c 3.552,4.497 5.93,9.93 6.669,15.843 l 8.356,66.847 c -12.723,0.764 -46.568,4.729 -66.857,7.182 z"
             style="fill:#ffc33d"
             inkscape:connector-curvature="0" />
        </g>
        <g
           id="g4832">
          <path
             id="path4834"
             d="m 320,419.507 65.936,-7.326 c 2.586,-0.287 4.914,1.576 5.202,4.161 l 0.726,6.536 c 0.287,2.585 -1.576,4.914 -4.161,5.201 l -67.703,7.523 0,-16.095 z"
             style="fill:#ffb440"
             inkscape:connector-curvature="0" />
        </g>
        <path
           id="path4836"
           d="m 120,89 0,71 c -13.255,0 -24,10.745 -24,24 0,13.255 10.745,24 24,24 l 0,8 c 0,19.378 11.651,36.855 29.538,44.308 l 51.69,21.538 c 2.53,1.054 5.112,1.962 7.727,2.749 -22.844,-16.711 -38.05,-31.32 -46.96,-40.872 C 155.513,236.773 152,227.602 152,218.098 l 0,-90.325 c 8.515,-0.949 16.116,-4.883 21.783,-10.713 4.364,1.88 9.164,2.94 14.217,2.94 10.997,0 20.719,-5.036 27.322,-12.806 4.869,2.993 10.544,4.806 16.678,4.806 8.215,0 15.629,-3.186 21.296,-8.274 6.211,5.092 14.047,8.274 22.704,8.274 15.284,0 28.248,-9.555 33.445,-23 L 120,89 Z"
           style="fill:#c38762"
           inkscape:connector-curvature="0" />
        <path
           id="path4838"
           d="m 344,96 c -0.52,0 -1.005,0.12 -1.517,0.153 C 343.411,93.597 344,90.876 344,88 344,74.745 333.255,64 320,64 c -2.911,0 -5.666,0.597 -8.248,1.546 C 310.469,46.831 295.042,32 276,32 259.607,32 245.929,43.025 241.579,58.015 238.641,56.732 235.41,56 232,56 223.021,56 215.288,60.989 211.172,68.29 206.135,60.875 197.64,56 188.001,56 176.545,56 166.728,62.898 162.392,72.75 157.99,67.448 151.43,64 144.001,64 135.084,64 127.309,68.866 123.171,76.084 122.621,76.029 122.064,76 121.5,76 112.387,76 105,83.387 105,92.5 c 0,2.688 0.656,5.218 1.797,7.461 C 100.294,104.254 96,111.624 96,120 c 0,13.255 10.745,24 24,24 13.255,0 24,-10.745 24,-24 0,-2.876 -0.589,-5.597 -1.517,-8.153 0.512,0.033 0.998,0.153 1.517,0.153 8.979,0 16.713,-4.989 20.828,-12.29 5.037,7.415 13.534,12.29 23.172,12.29 11.456,0 21.273,-6.898 25.609,-16.75 4.402,5.302 10.96,8.75 18.391,8.75 7.963,0 14.967,-3.922 19.333,-9.893 6.45,6.094 15.094,9.893 24.667,9.893 8.167,0 15.613,-2.824 21.654,-7.407 3.463,8.996 12.129,15.407 22.346,15.407 0.52,0 1.005,-0.12 1.517,-0.153 -0.928,2.556 -1.517,5.277 -1.517,8.153 0,13.255 10.745,24 24,24 13.255,0 24,-10.745 24,-24 0,-13.255 -10.745,-24 -24,-24 z"
           style="fill:#623f33"
           inkscape:connector-curvature="0" />
      </g>
      <g
         id="g4840" />
      <g
         id="g4842" />
      <g
         id="g4844" />
      <g
         id="g4846" />
      <g
         id="g4848" />
      <g
         id="g4850" />
      <g
         id="g4852" />
      <g
         id="g4854" />
      <g
         id="g4856" />
      <g
         id="g4858" />
      <g
         id="g4860" />
      <g
         id="g4862" />
      <g
         id="g4864" />
      <g
         id="g4866" />
      <g
         id="g4868" />
    </g>
    <path
       id="path4921"
       d="m 367.85924,571.83261 -219.66556,0 c -26.67393,0 -47.44072,22.28171 -44.54343,47.79135 l 15.50864,136.51766 c 2.48358,21.86418 21.68025,38.42391 44.54218,38.42391 l 100.78227,0 47.88227,46.80786 c 7.28494,7.12171 19.89,3.38741 21.7473,-6.44375 l 7.62907,-40.36411 10.6086,0 c 22.86318,0 42.0586,-16.55973 44.54216,-38.42391 l 15.50868,-136.51766 c 2.89852,-25.51086 -17.86824,-47.79135 -44.54218,-47.79135 z"
       style="fill:#ffffff;fill-opacity:1"
       inkscape:connector-curvature="0" />
    <path
       inkscape:connector-curvature="0"
       style="fill:#c861a4;fill-opacity:1"
       d="m 367.85924,562.70378 -219.66556,0 c -32.30655,0 -57.485028,27.03356 -53.97541,57.91219 l 15.50866,136.51764 c 3.01748,26.54424 26.22227,46.56078 53.97541,46.56078 9.47119,0 83.38594,0 96.8083,0 l 45.09382,44.08137 c 12.63667,12.35801 34.6117,5.90818 37.84551,-11.21266 l 6.21207,-32.86871 c 32.8936,0 53.81979,-21.52705 56.6652,-46.56078 l 15.50867,-136.51764 c 3.50961,-30.89689 -21.6891,-57.91219 -53.97667,-57.91219 z m 35.10893,55.92819 -15.5074,136.51764 c -1.96356,17.26691 -17.05598,30.28708 -35.11019,30.28708 l -10.6086,0 c -4.58631,0 -8.51471,3.15491 -9.33581,7.49539 l -7.62908,40.36532 c -0.48583,2.56581 -3.74875,3.52982 -5.6478,1.67241 l -32.68104,-31.94853 c 9.60783,-3.75378 6.82063,-17.58582 -3.5653,-17.58582 -13.89555,0 -107.27394,0 -119.18061,0 -18.05295,0 -33.14664,-13.02016 -35.10894,-30.28707 L 113.08474,618.63197 c -2.28494,-20.09687 14.10557,-37.6705 35.10894,-37.6705 l 219.66556,0 c 21.01348,0 37.3926,17.58337 35.10893,37.6705 z"
       id="path4925" />
    <ellipse
       style="fill:#c861a4;fill-opacity:1"
       cx="200.33841"
       cy="688.974"
       id="circle4927"
       rx="15.426425"
       ry="14.84107" />
    <ellipse
       style="fill:#c861a4;fill-opacity:1"
       cx="258.02585"
       cy="688.974"
       id="circle4929"
       rx="15.426425"
       ry="14.84107" />
    <ellipse
       style="fill:#c861a4;fill-opacity:1"
       cx="315.71326"
       cy="688.974"
       id="circle4931"
       rx="15.426425"
       ry="14.84107" />
    <g
       id="g4933"
       transform="matrix(0.76363573,0,0,0.76635659,150.00144,609.33052)" />
    <g
       id="g4935"
       transform="matrix(0.76363573,0,0,0.76635659,150.00144,609.33052)" />
    <g
       id="g4937"
       transform="matrix(0.76363573,0,0,0.76635659,150.00144,609.33052)" />
    <g
       id="g4939"
       transform="matrix(0.76363573,0,0,0.76635659,150.00144,609.33052)" />
    <g
       id="g4941"
       transform="matrix(0.76363573,0,0,0.76635659,150.00144,609.33052)" />
    <g
       id="g4943"
       transform="matrix(0.76363573,0,0,0.76635659,150.00144,609.33052)" />
    <g
       id="g4945"
       transform="matrix(0.76363573,0,0,0.76635659,150.00144,609.33052)" />
    <g
       id="g4947"
       transform="matrix(0.76363573,0,0,0.76635659,150.00144,609.33052)" />
    <g
       id="g4949"
       transform="matrix(0.76363573,0,0,0.76635659,150.00144,609.33052)" />
    <g
       id="g4951"
       transform="matrix(0.76363573,0,0,0.76635659,150.00144,609.33052)" />
    <g
       id="g4953"
       transform="matrix(0.76363573,0,0,0.76635659,150.00144,609.33052)" />
    <g
       id="g4955"
       transform="matrix(0.76363573,0,0,0.76635659,150.00144,609.33052)" />
    <g
       id="g4957"
       transform="matrix(0.76363573,0,0,0.76635659,150.00144,609.33052)" />
    <g
       id="g4959"
       transform="matrix(0.76363573,0,0,0.76635659,150.00144,609.33052)" />
    <g
       id="g4961"
       transform="matrix(0.76363573,0,0,0.76635659,150.00144,609.33052)" />
    <g
       id="g5086"
       transform="matrix(0.44495557,0,0,0.44515442,138.45332,838.27815)">
      <g
         id="g4994">
        <path
           id="path4996"
           d="m 232.232,0 -0.064,0 C 155.382,0 80.2,58 80.2,136 c 0,103.333 56,152 56,152 0,0 -11.542,23.589 -15.012,44.996 l 41.961,0 C 159.318,310.596 160.2,288 160.2,288 c 0,0 216,-39.333 216,-152 C 376.2,59.214 309.018,0 232.232,0 Z"
           style="fill:#ff9656"
           inkscape:connector-curvature="0" />
        <path
           id="path4998"
           d="M 299.295,15.919 C 279.017,5.733 256.092,0 232.232,0 l -0.063,0 C 155.382,0 80.2,58 80.2,136 c 0,103.333 56,152 56,152 0,0 -11.552,23.59 -15.023,44.996 l 41.97,0 C 159.316,310.596 160.2,288 160.2,288 c 0,0 22.901,-4.196 53.735,-13.687 L 104.2,166.055 c 0,0 158.908,-55.77 195.095,-150.136 z"
           style="fill:#ef8c56"
           inkscape:connector-curvature="0" />
        <path
           id="path5000"
           d="m 383.588,413.991 -1.526,-5.227 c -0.737,-2.525 -3.197,-4.073 -5.727,-3.751 l -5.334,-40.002 c -1.752,-13.142 -9.895,-24.558 -23.304,-31.262 l -15.714,-7.857 c -2.545,-1.272 -4.488,0.365 -6.357,2.444 l -34.485,-12.689 c -6.534,-2.178 -10.94,-8.292 -10.94,-15.179 l 0,-25.802 34.461,-14.359 c 17.887,-7.453 29.539,-24.93 29.539,-44.308 l 0,-8 c 13.255,0 24,-10.745 24,-24 0,-13.255 -10.745,-24 -24,-24 l 0,-16 c 0,-22.091 -17.909,-56 -40,-56 l -144,0 c -22.092,0 -40,33.909 -40,56 l 0,16 c -13.255,0 -24,10.745 -24,24 0,13.255 10.745,24 24,24 l 0,8 c 0,19.378 11.651,36.855 29.538,44.308 l 34.462,14.36 0,25.801 c 0,6.887 -4.407,13.001 -10.94,15.179 l -34.485,12.689 c -1.869,-2.079 -3.812,-3.717 -6.357,-2.444 l -15.714,7.857 c -13.41,6.705 -21.552,18.121 -23.304,31.262 l -5.334,40.002 c -2.53,-0.322 -4.989,1.226 -5.727,3.751 l -1.526,5.227 c -0.817,2.799 0.79,5.729 3.589,6.546 l 11.799,3.442 0,24.021 c 0,8.836 7.164,16 16,16 l 32,0 176,0 32,0 c 8.836,0 16,-7.164 16,-16 l 0,-24.021 11.799,-3.442 c 2.797,-0.816 4.404,-3.747 3.587,-6.546 z"
           style="fill:#ffd7a3"
           inkscape:connector-curvature="0" />
        <path
           id="path5002"
           d="m 280.2,273.831 -96,0.165 0,26.472 c 0,5.693 -3.017,10.852 -7.752,13.701 66.923,11.563 103.749,-40.334 103.752,-40.338 z"
           style="fill:#fdc88e"
           inkscape:connector-curvature="0" />
        <g
           id="g5004">
          <path
             id="path5006"
             d="m 371.001,365.011 c -1.752,-13.142 -9.895,-24.558 -23.304,-31.262 l -15.714,-7.857 c -2.905,-1.452 -5.025,0.886 -7.146,3.345 -42.636,49.431 -92.635,70.767 -92.635,70.767 l -0.001,0 -0.001,0 c 0,0 -49.999,-21.336 -92.635,-70.767 -2.121,-2.459 -4.242,-4.797 -7.146,-3.345 l -15.714,7.857 c -13.41,6.705 -21.552,18.121 -23.304,31.262 l -6.512,48.836 C 108.022,421.124 144.2,432 144.2,432 l 0,32 176,0 0,-32 c 0,0 36.178,-10.876 57.313,-18.153 l -6.512,-48.836 z"
             style="fill:#9bce7a"
             inkscape:connector-curvature="0" />
        </g>
        <path
           id="path5008"
           d="m 344.2,160 0,-16 c 0,-22.091 -17.909,-56 -40,-56 l -144,0 c -22.092,0 -40,33.909 -40,56 l 0,15.996 c -13.255,0 -24,10.745 -24,24 0,13.255 10.745,24 24,24 l 0,8.004 c 0,19.378 11.651,36.855 29.538,44.308 l 51.691,21.538 c 9.75,4.063 20.208,6.154 30.77,6.154 l 0,0 c 10.562,0 21.019,-2.092 30.769,-6.154 l 51.694,-21.539 c 17.887,-7.453 29.539,-24.93 29.539,-44.308 l 0,-8 c 13.255,0 24,-10.745 24,-24 C 368.201,170.744 357.455,160 344.2,160 Z"
           style="fill:#ffe1b2"
           inkscape:connector-curvature="0" />
        <g
           id="g5010">
          <path
             id="path5012"
             d="m 288.2,192 0,0 c -4.4,0 -8,-3.6 -8,-8 l 0,-8 c 0,-4.4 3.6,-8 8,-8 l 0,0 c 4.4,0 8,3.6 8,8 l 0,8 c 0,4.4 -3.6,8 -8,8 z"
             style="fill:#623f33"
             inkscape:connector-curvature="0" />
        </g>
        <g
           id="g5014">
          <g
             id="g5016">
            <path
               id="path5018"
               d="m 232.2,248.219 c -14.223,0 -27.527,-3.5 -36.5,-9.605 -3.652,-2.484 -4.601,-7.461 -2.113,-11.113 2.48,-3.648 7.461,-4.598 11.113,-2.113 6.289,4.277 16.57,6.832 27.5,6.832 10.93,0 21.211,-2.555 27.5,-6.832 3.66,-2.492 8.629,-1.539 11.113,2.113 2.488,3.652 1.539,8.629 -2.113,11.113 -8.973,6.105 -22.277,9.605 -36.5,9.605 z"
               style="fill:#e4b07b"
               inkscape:connector-curvature="0" />
          </g>
        </g>
        <path
           id="path5020"
           d="m 120.2,160 c -13.255,0 -24,10.745 -24,24 0,13.255 10.745,24 24,24 l 0,8 c 0,19.378 11.651,36.855 29.538,44.308 l 51.69,21.538 c 2.53,1.054 5.112,1.962 7.727,2.749 -22.844,-16.711 -38.05,-31.32 -46.96,-40.872 -6.482,-6.949 -9.995,-16.121 -9.995,-25.625 l 0,-42.098 c 0,0 133.333,-16.667 168,-72 2.026,-3.233 3.425,-6.167 4.277,-8.832 C 246.467,139.992 120.2,160 120.2,160 Z"
           style="fill:#ffd7a3"
           inkscape:connector-curvature="0" />
        <g
           id="g5022">
          <path
             id="path5024"
             d="m 144.002,429.556 c -0.489,-9.513 -3.665,-18.705 -9.402,-26.355 L 97.043,353.125 c -1.813,3.734 -3.087,7.708 -3.645,11.887 l -6.341,47.561 56.945,16.983 z"
             style="fill:#8abe69"
             inkscape:connector-curvature="0" />
        </g>
        <g
           id="g5026">
          <path
             id="path5028"
             d="m 80.812,413.991 c -0.817,2.799 0.79,5.73 3.588,6.546 l 59.799,17.444 0,-5.981 c 0,-3.779 -0.594,-7.481 -1.461,-11.113 l -53.856,-15.71 c -2.798,-0.816 -5.728,0.79 -6.544,3.588 l -1.526,5.226 z"
             style="fill:#76ab5f"
             inkscape:connector-curvature="0" />
        </g>
        <g
           id="g5030">
          <path
             id="path5032"
             d="m 320.398,429.556 c 0.489,-9.513 3.665,-18.705 9.402,-26.355 l 37.557,-50.076 c 1.813,3.734 3.087,7.708 3.645,11.887 l 6.341,47.561 -56.945,16.983 z"
             style="fill:#8abe69"
             inkscape:connector-curvature="0" />
        </g>
        <g
           id="g5034">
          <path
             id="path5036"
             d="m 383.588,413.991 c 0.817,2.799 -0.79,5.73 -3.588,6.546 l -59.8,17.444 0,-5.981 c 0,-3.779 0.594,-7.481 1.461,-11.113 l 53.856,-15.71 c 2.798,-0.816 5.728,0.79 6.544,3.588 l 1.527,5.226 z"
             style="fill:#76ab5f"
             inkscape:connector-curvature="0" />
        </g>
        <g
           id="g5038">
          <path
             id="path5040"
             d="m 160.2,296 -24,0 c -4.418,0 -8,-3.582 -8,-8 l 0,0 c 0,-4.418 3.582,-8 8,-8 l 24,0 c 4.418,0 8,3.582 8,8 l 0,0 c 0,4.418 -3.582,8 -8,8 z"
             style="fill:#76ab5f"
             inkscape:connector-curvature="0" />
        </g>
        <path
           id="path5042"
           d="m 104.2,84.996 0,81.059 c 124.89,-14.872 184.031,-41.191 210.985,-59.117 1.986,29.312 1.456,73.299 -12.233,117.063 0,0 47.884,-66.782 40.461,-139.004 L 104.2,84.996 l 0,0 z"
           style="fill:#ff9656"
           inkscape:connector-curvature="0" />
        <g
           id="g5044">
          <path
             id="path5046"
             d="m 176.2,192 0,0 c -4.4,0 -8,-3.6 -8,-8 l 0,-8 c 0,-4.4 3.6,-8 8,-8 l 0,0 c 4.4,0 8,3.6 8,8 l 0,8 c 0,4.4 -3.6,8 -8,8 z"
             style="fill:#623f33"
             inkscape:connector-curvature="0" />
        </g>
        <path
           id="path5048"
           d="m 104.2,84.996 0,81.059 0,0 c 0.009,-0.003 83.212,-29.188 142.933,-81.059 0,0 -142.933,0 -142.933,0 z"
           style="fill:#ef8c56"
           inkscape:connector-curvature="0" />
      </g>
      <g
         id="g5050" />
      <g
         id="g5052" />
      <g
         id="g5054" />
      <g
         id="g5056" />
      <g
         id="g5058" />
      <g
         id="g5060" />
      <g
         id="g5062" />
      <g
         id="g5064" />
      <g
         id="g5066" />
      <g
         id="g5068" />
      <g
         id="g5070" />
      <g
         id="g5072" />
      <g
         id="g5074" />
      <g
         id="g5076" />
      <g
         id="g5078" />
    </g>
    <g
       id="g5224"
       transform="matrix(0.47530815,0,0,0.42122375,272.58805,844.94015)">
      <g
         id="g5132">
        <path
           id="path5134"
           d="m 391.864,422.878 -0.726,-6.536 c -0.287,-2.586 -2.616,-4.449 -5.201,-4.162 l -0.407,0.045 -7.027,-56.214 C 376.974,343.783 368.56,333.519 356.87,329.622 L 311.956,314.65 c -3.841,-1.28 -8.048,0.493 -9.75,4.166 -0.078,0.168 -0.159,0.337 -0.237,0.506 l -11.026,-3.676 c -6.534,-2.178 -10.94,-8.292 -10.94,-15.179 l 0,-25.802 34.461,-14.359 C 332.35,252.855 344.001,235.378 344.001,216 l 0,-8 c 13.255,0 24,-10.745 24,-24 0,-5.513 -1.864,-10.589 -4.989,-14.641 4.809,-23.816 13.571,-70.214 12.959,-89.359 -0.409,-12.8 -8.515,-29.935 -32,-40 C 301.993,22.009 249.363,16.671 232.001,0.025 l 0,-0.025 C 231.997,0.004 231.99,0.008 231.986,0.012 231.982,0.008 231.975,0.004 231.971,0 l 0,0.025 C 214.609,16.671 161.979,22.009 120.001,40 c -23.486,10.065 -31.591,27.2 -32,40 -0.612,19.153 8.157,65.583 12.965,89.39 -3.111,4.047 -4.965,9.111 -4.965,14.61 0,13.255 10.745,24 24,24 l 0,8 c 0,19.377 11.651,36.854 29.538,44.308 l 34.462,14.36 0,25.801 c 0,6.887 -4.407,13.001 -10.94,15.179 l -11.026,3.676 c -0.078,-0.168 -0.159,-0.337 -0.237,-0.506 -1.703,-3.673 -5.91,-5.446 -9.75,-4.166 l -44.914,14.972 c -11.691,3.897 -20.105,14.161 -21.633,26.389 l -7.027,56.214 -0.407,-0.045 c -2.586,-0.287 -4.914,1.576 -5.202,4.162 l -0.726,6.536 c -0.287,2.585 1.576,4.914 4.161,5.201 l 11.702,1.3 0,18.621 c 0,8.836 7.163,16 16,16 l 40,0 176,0 40,0 c 8.837,0 16,-7.164 16,-16 l 0,-18.621 11.702,-1.3 c 2.584,-0.289 4.448,-2.618 4.16,-5.203 z"
           style="fill:#f6b47b"
           inkscape:connector-curvature="0" />
        <g
           id="g5136">
          <path
             id="path5138"
             d="m 184.001,274.001 0,26.468 c 0,5.693 -3.017,10.852 -7.753,13.701 66.926,11.563 103.753,-40.169 103.753,-40.169 l -96,0 z"
             style="fill:#e2a071"
             inkscape:connector-curvature="0" />
        </g>
        <g
           id="g5140">
          <path
             id="path5142"
             d="m 375.971,80 c -0.409,-12.8 -8.515,-29.935 -32,-40 C 301.993,22.009 249.363,16.671 232.001,0.025 l 0,-0.025 C 231.997,0.004 231.99,0.008 231.986,0.012 231.982,0.008 231.975,0.004 231.971,0 l 0,0.025 C 214.609,16.671 161.979,22.009 120.001,40 c -23.486,10.065 -31.591,27.2 -32,40 -0.84,26.293 16,104 16,104 l 255.97,0 c 0,0 16.84,-77.707 16,-104 z"
             style="fill:#9d6e48"
             inkscape:connector-curvature="0" />
        </g>
        <g
           id="g5144">
          <path
             id="path5146"
             d="m 231.971,0 0,0.025 C 214.609,16.671 161.979,22.009 120.001,40 c -23.486,10.065 -31.591,27.2 -32,40 -0.84,26.293 16,104 16,104 l 72,0 c 0,0 0,-46.847 0,-72 0,-53.334 56,-78.667 56,-112 -0.004,0.004 -0.011,0.008 -0.015,0.012 C 231.982,0.008 231.975,0.004 231.971,0 Z"
             style="fill:#8d5f3d"
             inkscape:connector-curvature="0" />
        </g>
        <g
           id="g5148">
          <path
             id="path5150"
             d="M 378.503,356.012 C 376.975,343.784 368.56,333.52 356.87,329.623 l -44.914,-14.972 c -3.841,-1.28 -8.048,0.493 -9.751,4.166 -11.101,23.945 -26.794,50.002 -70.204,81.183 -43.409,-31.181 -59.103,-57.238 -70.204,-81.184 -1.703,-3.673 -5.91,-5.446 -9.751,-4.166 l -44.914,14.972 c -11.691,3.897 -20.105,14.161 -21.633,26.389 l -7.609,60.872 66.111,7.117 0,40 176,0 0,-40 66.11,-7.117 -7.608,-60.871 z"
             style="fill:#4f6e7f"
             inkscape:connector-curvature="0" />
        </g>
        <path
           id="path5152"
           d="m 344.001,160 0,-16 c 0,-22.091 -17.909,-40 -40,-40 l -144,0 c -22.091,0 -40,17.909 -40,40 l 0,16 c -13.255,0 -24,10.745 -24,24 0,13.255 10.745,24 24,24 l 0,8 c 0,19.377 11.651,36.854 29.538,44.308 l 51.691,21.538 C 210.98,285.909 221.438,288 232,288 l 0,0 c 10.562,0 21.019,-2.091 30.769,-6.154 l 51.694,-21.539 C 332.35,252.855 344.001,235.378 344.001,216 l 0,-8 c 13.255,0 24,-10.745 24,-24 0,-13.255 -10.745,-24 -24,-24 z"
           style="fill:#fdc88e"
           inkscape:connector-curvature="0" />
        <g
           id="g5154">
          <path
             id="path5156"
             d="m 176.001,192 0,0 c -4.4,0 -8,-3.6 -8,-8 l 0,-8 c 0,-4.4 3.6,-8 8,-8 l 0,0 c 4.4,0 8,3.6 8,8 l 0,8 c 0,4.4 -3.6,8 -8,8 z"
             style="fill:#623f33"
             inkscape:connector-curvature="0" />
        </g>
        <g
           id="g5158">
          <path
             id="path5160"
             d="m 288.001,192 0,0 c -4.4,0 -8,-3.6 -8,-8 l 0,-8 c 0,-4.4 3.6,-8 8,-8 l 0,0 c 4.4,0 8,3.6 8,8 l 0,8 c 0,4.4 -3.6,8 -8,8 z"
             style="fill:#623f33"
             inkscape:connector-curvature="0" />
        </g>
        <g
           id="g5162">
          <g
             id="g5164">
            <path
               id="path5166"
               d="m 232.001,248.219 c -14.223,0 -27.527,-3.5 -36.5,-9.605 -3.652,-2.484 -4.602,-7.461 -2.113,-11.113 2.48,-3.648 7.461,-4.598 11.113,-2.113 6.289,4.277 16.57,6.832 27.5,6.832 10.93,0 21.211,-2.555 27.5,-6.832 3.66,-2.492 8.629,-1.539 11.113,2.113 2.488,3.652 1.539,8.629 -2.113,11.113 -8.972,6.105 -22.277,9.605 -36.5,9.605 z"
               style="fill:#e2a071"
               inkscape:connector-curvature="0" />
          </g>
        </g>
        <path
           id="path5168"
           d="m 161.997,243.723 c -6.482,-6.95 -9.995,-16.121 -9.995,-25.625 l 0,-113.292 c -18.257,3.707 -32,19.843 -32,39.194 l 0,16 c -13.255,0 -24,10.745 -24,24 0,13.255 10.745,24 24,24 l 0,8 c 0,19.378 11.651,36.855 29.538,44.308 l 51.69,21.538 c 2.53,1.054 5.112,1.962 7.727,2.749 -22.845,-16.712 -38.051,-31.32 -46.96,-40.872 z"
           style="fill:#f6b47b"
           inkscape:connector-curvature="0" />
        <g
           id="g5170">
          <path
             id="path5172"
             d="m 144.001,430.04 0,-18.106 c 0,-7.697 -2.774,-15.135 -7.813,-20.953 L 92.169,340.168 c -3.552,4.497 -5.93,9.93 -6.669,15.843 l -8.356,66.847 c 12.724,0.764 46.568,4.729 66.857,7.182 z"
             style="fill:#33546a"
             inkscape:connector-curvature="0" />
        </g>
        <g
           id="g5174">
          <path
             id="path5176"
             d="m 144.001,419.507 -65.936,-7.326 c -2.586,-0.287 -4.914,1.576 -5.202,4.161 l -0.726,6.536 c -0.287,2.585 1.576,4.914 4.161,5.201 l 67.703,7.523 0,-16.095 z"
             style="fill:#4f6e7f"
             inkscape:connector-curvature="0" />
        </g>
        <g
           id="g5178">
          <path
             id="path5180"
             d="m 320.001,430.04 0,-18.106 c 0,-7.697 2.774,-15.135 7.813,-20.953 l 44.019,-50.813 c 3.552,4.497 5.93,9.93 6.669,15.843 l 8.356,66.847 c -12.723,0.764 -46.568,4.729 -66.857,7.182 z"
             style="fill:#33546a"
             inkscape:connector-curvature="0" />
        </g>
        <g
           id="g5182">
          <path
             id="path5184"
             d="m 320.001,419.507 65.936,-7.326 c 2.586,-0.287 4.914,1.576 5.202,4.161 l 0.726,6.536 c 0.287,2.585 -1.576,4.914 -4.161,5.201 l -67.703,7.523 0,-16.095 z"
             style="fill:#4f6e7f"
             inkscape:connector-curvature="0" />
        </g>
        <path
           id="path5186"
           d="m 269.924,100.001 c 11.224,7.947 35.758,27.131 50.077,52 0,0 0.351,-27.953 -14.702,-52 0,0 -35.375,0 -35.375,0 z"
           style="fill:#9d6e48"
           inkscape:connector-curvature="0" />
      </g>
      <g
         id="g5188" />
      <g
         id="g5190" />
      <g
         id="g5192" />
      <g
         id="g5194" />
      <g
         id="g5196" />
      <g
         id="g5198" />
      <g
         id="g5200" />
      <g
         id="g5202" />
      <g
         id="g5204" />
      <g
         id="g5206" />
      <g
         id="g5208" />
      <g
         id="g5210" />
      <g
         id="g5212" />
      <g
         id="g5214" />
      <g
         id="g5216" />
    </g>
    <flowRoot
       xml:space="preserve"
       id="flowRoot5509"
       style="fill:black;stroke:none;stroke-opacity:1;stroke-width:1px;stroke-linejoin:miter;stroke-linecap:butt;fill-opacity:1;font-family:sans-serif;font-style:normal;font-weight:normal;font-size:40px;line-height:125%;letter-spacing:0px;word-spacing:0px"><flowRegion
         id="flowRegion5511"><rect
           id="rect5513"
           width="168.57143"
           height="52.857143"
           x="201.42857"
           y="433.42856" /></flowRegion><flowPara
         id="flowPara5515" /></flowRoot>    <text
       xml:space="preserve"
       style="font-style:normal;font-weight:normal;font-size:40px;line-height:125%;font-family:sans-serif;letter-spacing:0px;word-spacing:0px;fill:#000000;fill-opacity:1;stroke:none;stroke-width:1px;stroke-linecap:butt;stroke-linejoin:miter;stroke-opacity:1"
       x="274.28571"
       y="1000.9336"
       id="text5517"
       sodipodi:linespacing="125%"><tspan
         sodipodi:role="line"
         id="tspan5519"
         x="274.28571"
         y="1000.9336" /></text>
    <flowRoot
       xml:space="preserve"
       id="flowRoot5521"
       style="fill:black;stroke:none;stroke-opacity:1;stroke-width:1px;stroke-linejoin:miter;stroke-linecap:butt;fill-opacity:1;font-family:Ubuntu;font-style:normal;font-weight:normal;font-size:40px;line-height:125%;letter-spacing:0px;word-spacing:0px;-inkscape-font-specification:Ubuntu;font-stretch:normal;font-variant:normal;"><flowRegion
         id="flowRegion5523"><rect
           id="rect5525"
           width="184.28572"
           height="48.57143"
           x="210"
           y="440.57144"
           style="-inkscape-font-specification:Ubuntu;font-family:Ubuntu;font-weight:normal;font-style:normal;font-stretch:normal;font-variant:normal;" /></flowRegion><flowPara
         id="flowPara5527" /></flowRoot>  </g>
</svg>
